<svg width="68" height="64" viewBox="0 0 68 64" fill="none" xmlns="http://www.w3.org/2000/svg">
<path d="M40.629 17.8322C38.9324 23.3666 39.1242 28.6541 42.4289 33.6429C42.9305 34.3834 42.9305 34.8641 42.1633 35.4228C40.7323 36.4491 39.3307 37.5014 37.9439 38.5667C37.4128 38.9695 36.985 38.9565 36.4096 38.5797C31.6148 35.4357 28.2216 31.3564 25.9201 26.5235C25.271 25.1464 24.7546 23.7303 24.1792 22.3272C24.1202 22.1713 24.076 22.0154 24.0022 21.8595C22.6154 18.7286 22.5564 17.8062 23.6186 14.4543C23.5891 14.4933 22.2908 14.7142 21.2581 16.2732C19.9598 13.9866 22.0105 10.0502 25.9939 8.54317C25.3005 7.69872 25.0349 6.77632 25.4332 5.62006C25.7283 5.80195 25.9644 5.93186 26.2004 6.07477C27.5134 6.86726 28.8855 6.97119 30.3018 6.34759C31.0099 6.0358 31.7033 5.67203 32.3672 5.28228C33.5032 4.6327 34.654 4.20398 35.8195 4.68467C37.3095 3.34654 38.7111 2.08636 40.1274 0.826172C40.5995 2.08636 39.5373 3.22961 39.5373 4.6327C41.647 4.3339 42.7682 2.99576 44.214 1.77456C44.4206 2.25524 44.4206 3.16466 44.273 3.81424C43.9927 5.04844 43.7714 5.55511 44.7156 6.4905C49.8792 10.9596 53.0512 16.7798 54.3052 18.4947C55.3379 19.8978 55.3674 21.3399 54.0101 22.5221C52.5791 23.7693 50.5284 23.5355 49.1416 22.2623C48.5072 21.6647 44.4206 17.4424 40.629 17.8322ZM32.9278 8.79001C28.856 11.921 26.5692 15.9614 25.2267 20.4824C25.0497 21.0671 24.9316 21.7556 25.1234 22.3142C26.4365 26.4196 28.5167 30.2261 31.6443 33.513C32.7213 34.6433 33.9458 35.6566 35.1113 36.7219C35.1851 36.6829 35.2736 36.644 35.3474 36.605C34.4032 30.9666 33.8721 25.3543 36.3506 19.8848C34.9933 25.8739 36.2621 31.5383 38.8734 37.1766C39.67 36.553 40.3339 35.9944 41.0421 35.4747C41.4552 35.1629 41.4404 34.8901 41.2191 34.4874C39.0209 30.5249 38.5636 26.3416 39.316 22.0414C39.5668 20.6253 39.8766 19.2223 40.1717 17.7802C39.1094 17.7802 38.1062 17.7802 37.044 17.7802C37.221 15.6106 36.2916 13.6748 35.3621 11.7261C36.985 12.9733 37.7079 14.5972 38.0177 16.4031C38.1947 16.4291 38.3128 16.455 38.416 16.455C41.942 16.2862 44.8189 17.5723 47.3122 19.625C48.2711 20.4175 49.1121 21.3399 50.012 22.1843C50.5726 22.717 51.2218 23.0678 52.1512 22.8079C51.8561 21.7426 51.266 21.08 50.3513 20.5604C49.953 20.3395 50.3366 19.7679 50.7201 19.9238C51.03 20.0537 51.2955 20.3395 51.5021 20.5994C52.0184 21.2359 52.4905 21.8985 53.0512 22.639C53.479 22.2363 53.8773 21.8466 54.3347 21.4048C53.8331 21.2879 53.4642 21.2489 53.1249 21.132C52.402 20.8722 52.166 20.2876 52.6233 19.7679C52.7266 19.651 53.2134 19.3132 53.4347 19.5211C53.7298 19.7809 53.6265 20.0797 53.6265 20.1966C53.6265 20.3395 53.5085 20.4694 53.4347 20.6643C53.7888 20.8332 54.0986 20.9761 54.4084 21.119C54.8068 20.3785 54.674 19.7939 54.2462 19.1833C53.1839 17.6892 52.2102 16.1432 51.1332 14.6622C49.0383 11.7781 46.8548 8.9719 43.9632 6.63341C42.5174 5.46417 40.9241 4.93151 38.9766 5.32126C38.9324 5.33425 38.8734 5.28228 38.6963 5.21732C38.9029 4.38586 39.1242 3.52842 39.3307 2.65799C37.339 3.81424 36.8227 4.37287 36.3063 5.93186C35.3769 5.08741 34.3589 5.2563 33.3409 5.73699C32.8246 5.98383 32.3672 6.30862 31.8361 6.51648C30.9214 6.89324 30.0067 7.38692 29.0478 7.49085C28.0888 7.59478 27.1741 7.45188 25.9939 6.67238C26.1414 7.84163 26.7315 8.4912 27.602 8.98488C26.0234 9.20574 24.5776 9.75139 23.4711 10.8167C22.3646 11.882 21.7007 13.3241 21.5827 14.7272C23.058 13.6878 24.3858 13.6878 24.6808 13.6878C23.9874 15.8444 23.235 18.3388 24.2382 20.4694C25.8463 15.7015 28.0888 11.4663 32.9278 8.79001ZM43.9042 2.91782C43.0928 3.5544 42.4879 4.0221 41.824 4.54177C42.3256 4.77561 42.7387 4.97049 43.1665 5.16536C43.4026 4.45082 43.6239 3.78825 43.9042 2.91782Z" fill="#EF7E06"/>
<path d="M46.7368 13.078C46.2647 12.2595 45.7631 11.4671 45.2467 10.6876C45.2172 10.6486 45.0844 10.5576 45.0549 10.5576C44.6418 10.5576 43.8747 10.5447 43.5796 10.5187C43.5059 10.5187 43.3731 10.4407 43.3436 10.4017C42.1633 9.46635 41.2339 8.82976 41.1896 8.85575C41.1453 8.88173 41.6322 9.5573 43.4321 11.8308C43.4764 11.8828 43.7124 11.9867 43.8009 11.9867C44.3173 12.0257 44.8484 12.0517 45.3648 12.0907C45.3943 12.0907 45.527 12.1426 45.5565 12.1686C45.9401 12.4674 46.3237 12.7662 46.7073 13.065C46.7073 13.091 46.7515 13.091 46.7368 13.078Z" fill="#EF7E06"/>
<path d="M26.4216 0.0598311C24.6069 0.137781 21.9809 0.332655 20.2547 0.527529C17.7467 0.813344 14.678 1.29403 14.5305 1.42395C14.501 1.44993 14.442 2.13848 14.4125 2.95695C14.2059 7.72486 14.5748 12.7006 15.4157 17.0268C15.6075 18.0012 15.8288 19.0535 15.8878 19.2354C15.9468 19.4173 16.2566 20.6645 16.3156 20.8983C16.3451 21.0153 16.4189 21.3141 16.5074 21.5609C16.5812 21.8077 16.6697 22.0936 16.6845 22.1975C16.8615 22.951 18.0123 26.1339 18.4696 27.1863C18.5139 27.2902 18.6614 27.615 18.7794 27.9008C18.9122 28.1866 19.045 28.5114 19.104 28.6153C19.163 28.7193 19.2368 28.8752 19.2663 28.9531C19.2958 29.0311 19.3695 29.161 19.4138 29.2519C19.4581 29.3429 19.5613 29.5377 19.6351 29.6936C19.9302 30.3302 20.4465 31.1487 20.4465 31.2007C20.4465 31.2786 21.2432 32.7466 21.3317 32.8246C21.3612 32.8506 21.4497 32.9805 21.8481 33.6561C22.0546 33.9938 22.4382 34.5915 23.2939 35.8386C23.3381 35.9036 23.3972 35.9816 23.4267 36.0075C23.4562 36.0465 23.707 36.3843 23.9873 36.761C24.2676 37.1378 24.5332 37.4756 24.5627 37.5146C24.5922 37.5535 24.6954 37.6705 24.7692 37.7614C25.2265 38.346 25.4183 38.5669 25.7872 38.9696C25.9495 39.1385 26.156 39.3724 26.2593 39.4893C26.5543 39.8141 26.8937 40.1908 27.115 40.3857C27.2772 40.5416 28.1772 41.412 28.1772 41.438C28.1772 41.5679 30.8032 43.7635 31.6737 44.3611C31.9245 44.543 32.3671 44.8548 32.3966 44.8808C32.4851 44.9587 33.9162 45.7642 34.1522 45.8811C34.4915 46.037 34.8309 46.037 35.1112 45.8941C35.5095 45.7123 36.0701 45.4134 36.0996 45.3875C36.1144 45.3745 36.1881 45.3225 36.2324 45.2965C36.498 45.1536 37.0291 44.8158 37.2209 44.6599C37.3389 44.569 37.4569 44.491 37.4717 44.491C37.5159 44.491 37.5897 44.4391 38.1798 43.9714C38.3864 43.8155 38.5929 43.6596 38.6519 43.6336C38.9175 43.4907 42.3255 40.5286 42.9893 39.866C44.0958 38.7358 44.1401 38.6838 44.4794 38.32C44.6122 38.1641 44.7745 38.0082 44.8187 37.9693C45.0695 37.7484 46.6039 35.8516 47.0022 35.306C47.8874 34.0588 48.625 32.8246 48.8758 32.24C49.2742 31.2786 49.3479 31.1097 49.3037 31.1357C49.2742 31.1487 49.1709 31.2786 49.0824 31.4345C48.9939 31.5774 48.8906 31.7073 48.8758 31.7203C48.8611 31.7333 48.7726 31.8502 48.6841 31.9672C48.5955 32.0841 48.507 32.214 48.4775 32.24C48.4333 32.2919 47.7399 33.1494 47.5481 33.3702C47.5038 33.4352 47.3858 33.5521 47.3268 33.6301C47.253 33.708 46.9432 34.0458 46.6334 34.3836C46.3383 34.7214 46.0137 35.0592 45.9252 35.1631C45.7334 35.345 45.1728 35.9166 45.0695 36.0075C45.0253 36.0465 44.8187 36.2544 44.5827 36.4882C43.8155 37.2417 42.6943 38.2161 41.573 39.0736C41.3222 39.2684 41.0862 39.4633 41.0419 39.4893C40.9977 39.5283 40.6731 39.7491 40.319 40.0089C39.9502 40.2558 39.5961 40.5156 39.5076 40.5676C39.2125 40.7755 37.929 41.529 37.6044 41.6849C36.9405 42.0096 35.9963 42.3864 35.7898 42.4254C35.6128 42.4514 35.4652 42.4124 34.9489 42.1785C34.6095 42.0226 34.1965 41.8148 34.0489 41.7238C33.9014 41.6329 33.7686 41.5679 33.7539 41.5679C33.7244 41.5679 32.7949 40.9703 32.4113 40.7105C32.3228 40.6455 32.013 40.4117 31.7032 40.1778C31.1868 39.7751 29.7263 38.4629 29.5935 38.32C29.3279 38.0342 28.5608 37.1898 28.31 36.9169C27.8969 36.4492 27.3362 35.7217 26.6428 34.7603C26.5396 34.6174 26.4216 34.4486 26.3773 34.3966C26.333 34.3316 26.2593 34.2147 26.2003 34.1238C26.097 33.9419 25.9642 33.747 25.9199 33.708C25.8904 33.682 25.8314 33.6041 25.4183 32.9155C24.961 32.162 24.1348 30.668 23.7217 29.8625C23.3381 29.122 22.9103 28.1216 22.7628 27.7839C22.0399 26.1339 21.0662 23.5096 20.7711 22.4183C20.7416 22.3144 20.6236 21.8727 20.4908 21.444C20.2547 20.6645 19.9154 19.3263 19.7236 18.5079C19.6794 18.261 19.5908 17.9622 19.5761 17.8323C19.5466 17.7154 19.4138 17.0918 19.2958 16.4422C18.927 14.4935 18.6761 12.5707 18.4844 10.3232C18.3958 9.2189 18.3811 5.16552 18.4548 4.10021L18.4991 3.38568L18.9565 3.20379C20.417 2.60618 22.0694 2.17746 24.6217 1.73574C27.3215 1.26805 30.4492 0.943256 33.8424 0.800349C35.775 0.722399 35.9668 0.696418 36.1144 0.63146L36.2619 0.566502L36.1144 0.462571C35.9078 0.306672 35.6128 0.254703 34.5653 0.163762C32.4703 0.00786318 29.0624 -0.0570931 26.4216 0.0598311Z" fill="#EF7E06"/>
<path d="M2.78338 49.1174C2.7242 49.5213 2.7094 49.86 2.73899 49.8861C2.76859 49.8991 3.31606 49.7818 3.96712 49.6125C4.85492 49.378 5.50597 49.3128 6.55654 49.3128C7.93263 49.3128 7.96222 49.3259 8.30254 49.7037L8.65766 50.0815L8.16937 52.5958C7.69588 55.019 7.66629 55.1102 7.178 55.514C6.7193 55.9049 6.60093 55.9439 5.72792 55.9439C5.07687 55.9439 4.78093 55.8918 4.78093 55.7746C4.78093 55.6313 5.60955 51.4494 5.72792 50.9674C5.77231 50.785 5.63914 50.798 4.52939 51.0585C3.83395 51.2279 3.22728 51.3973 3.18289 51.4494C3.1385 51.4885 2.57623 54.081 1.95477 57.2206C1.31851 60.3473 0.726647 62.9268 0.652663 62.9528C0.563883 62.9789 0.341933 63.1092 0.164373 63.2394C-0.17595 63.487 -0.161154 63.487 1.93997 63.5C3.24208 63.5 4.0411 63.4479 4.0411 63.3697C4.0411 63.2916 3.99671 63.2394 3.93752 63.2394C3.86354 63.2394 3.70078 63.1483 3.56761 63.0571C3.33086 62.9007 3.34566 62.7053 3.89313 59.9695C4.21866 58.3671 4.485 57.0122 4.485 56.9601C4.485 56.908 5.43199 56.8559 6.60093 56.8559H8.70205L9.3679 56.3869L10.0338 55.9179L10.6552 52.7782C10.9955 51.0455 11.2915 49.5604 11.2915 49.4692C11.2915 49.378 11.0843 49.1044 10.8328 48.8438L10.3741 48.3879H6.63052H2.88696L2.78338 49.1174Z" fill="#EF7E06"/>
<path d="M11.8832 50.8371C11.8832 50.9022 12.046 51.0325 12.2383 51.1237C12.5195 51.254 12.5934 51.3712 12.5342 51.6318C12.4899 51.8142 11.972 54.4327 11.3653 57.4421C10.7586 60.4515 10.1964 62.9268 10.1224 62.9528C10.0336 62.9789 9.81166 63.1092 9.6341 63.2394C9.29378 63.487 9.30857 63.487 11.4097 63.5C12.7118 63.5 13.5108 63.4479 13.5108 63.3697C13.5108 63.2916 13.4664 63.2394 13.4073 63.2394C13.3333 63.2394 13.1705 63.1613 13.0373 63.0571C12.8006 62.9007 12.8598 62.5099 13.9399 57.1164C14.591 53.8986 15.1829 51.3061 15.2716 51.28C15.3604 51.254 15.5824 51.1237 15.7599 50.9934C16.1002 50.7459 16.0854 50.7459 13.9991 50.7329C12.8302 50.7329 11.8832 50.785 11.8832 50.8371Z" fill="#EF7E06"/>
<path d="M17.0917 51.2279C16.4555 51.7099 16.4407 51.736 16.1595 53.143C16.0116 53.9377 15.8488 54.7063 15.8044 54.8626C15.7452 55.0711 15.8784 55.3056 16.2335 55.6573C16.6478 56.0612 17.1361 56.2827 18.749 56.8559C20.5394 57.4682 20.7465 57.5724 20.6873 57.8199C20.6577 57.9763 20.4506 58.9403 20.2434 59.9825C19.8735 61.7543 19.8291 61.8846 19.3852 62.2233C18.7194 62.7183 17.8612 62.7183 17.3137 62.2233L16.9142 61.8585L17.1953 60.4906C17.3581 59.748 17.4617 59.1097 17.4321 59.0836C17.3877 59.0576 16.8106 59.1748 16.1152 59.3442L14.8574 59.6438L14.6947 60.5688C14.5911 61.0638 14.4579 61.7152 14.3987 61.9888C14.2804 62.4448 14.3248 62.549 14.7243 62.9919L15.183 63.5H18.0831H20.9833L21.6343 63.0049L22.2854 62.5099L22.7589 60.1649L23.2176 57.8329L22.7737 57.3509C22.4037 56.9601 21.9598 56.7517 20.3322 56.1915C19.2521 55.8137 18.3347 55.4359 18.3051 55.3577C18.2755 55.2925 18.379 54.6021 18.527 53.8334C18.7934 52.5698 18.8673 52.4004 19.3112 52.0487C19.9771 51.5145 20.7021 51.5015 21.2496 52.0096C21.6343 52.3613 21.6491 52.4134 21.5011 53.0778C21.4124 53.4556 21.3828 53.7944 21.4272 53.8334C21.4568 53.8725 22.0486 53.7683 22.7441 53.5989L23.987 53.3123L24.135 52.5046C24.2681 51.736 24.2681 51.6969 23.839 51.2149L23.3951 50.7329H20.569L17.728 50.7459L17.0917 51.2279Z" fill="#EF7E06"/>
<path d="M25.0969 51.4494C24.9341 52.2831 25.0081 52.3222 25.9403 51.9053C26.5174 51.6448 28.1598 51.5275 28.1598 51.736C28.1598 51.8011 27.6567 54.3285 27.0501 57.377C26.4434 60.4255 25.9403 62.9268 25.9403 62.9268C25.9403 62.9398 25.748 63.018 25.4964 63.1092C25.2597 63.2004 25.0525 63.3176 25.0525 63.3828C25.0525 63.4479 25.9847 63.5 27.124 63.5C28.4114 63.5 29.1956 63.4479 29.1956 63.3697C29.1956 63.2916 29.1512 63.2394 29.092 63.2394C29.018 63.2394 28.8553 63.1483 28.7221 63.0571C28.4705 62.9007 28.5297 62.549 29.5655 57.3379C30.1722 54.2894 30.6752 51.762 30.6752 51.723C30.6752 51.5145 32.3473 51.6708 32.9687 51.9314C33.3239 52.0877 33.6642 52.192 33.6938 52.1529C33.7234 52.1268 33.8269 51.7881 33.9009 51.4103L34.0341 50.7329H29.6395H25.2449L25.0969 51.4494Z" fill="#EF7E06"/>
<path d="M34.818 50.8374C34.818 50.9026 34.9807 51.0328 35.1731 51.124C35.469 51.2543 35.5282 51.3715 35.469 51.6321C35.4246 51.8145 34.9067 54.4331 34.3001 57.4425C33.7082 60.4519 33.1459 62.9271 33.0571 62.9532C32.9684 62.9792 32.7464 63.1095 32.5689 63.2528C32.2285 63.4873 32.2877 63.4873 36.5936 63.4613L40.9586 63.4352L41.3877 61.3117C41.6096 60.1392 41.7724 59.1621 41.728 59.123C41.6984 59.0839 41.0917 59.1882 40.4111 59.3445L39.1682 59.6441L38.8722 61.0772L38.5911 62.5233L37.2298 62.5623C36.2088 62.5884 35.8537 62.5623 35.8537 62.4321C35.8537 62.2236 36.7267 57.7682 36.8303 57.4685C36.9487 57.1428 38.088 57.1558 38.4431 57.5076C38.5911 57.6509 38.7539 57.7682 38.8279 57.7682C38.961 57.7682 39.3309 55.9703 39.2126 55.8661C39.1682 55.827 38.9314 55.9052 38.6947 56.0615C38.1176 56.4133 36.9783 56.4524 37.0966 56.1006C37.1262 55.9834 37.3482 54.9281 37.5701 53.7556L37.9696 51.6451H39.3605C40.1152 51.6451 40.7366 51.6972 40.7366 51.7494C40.7366 51.8666 40.4703 53.2475 40.3667 53.6775L40.2927 53.951L41.5948 53.6384C42.3051 53.456 42.9117 53.2996 42.9413 53.2606C43.0153 53.1954 43.3852 51.3976 43.3852 51.0198L43.4 50.7332H39.109C36.7563 50.7332 34.818 50.7853 34.818 50.8374Z" fill="#EF7E06"/>
<path d="M44.1398 50.8371C44.1398 50.9022 44.3025 51.0325 44.4949 51.1237C44.776 51.254 44.85 51.3712 44.7908 51.6318C44.7464 51.8142 44.2286 54.4327 43.6219 57.4421C43.0152 60.4515 42.453 62.9268 42.379 62.9528C42.2902 62.9789 42.0683 63.1092 41.8907 63.2394C41.5504 63.487 41.5652 63.487 43.6663 63.5C44.9684 63.5 45.7674 63.4479 45.7674 63.3697C45.7674 63.2916 45.723 63.2394 45.6638 63.2394C45.5899 63.2394 45.4271 63.1613 45.2939 63.0571C45.0572 62.9007 45.1164 62.5099 46.1965 57.1164C46.8476 53.8986 47.4394 51.3061 47.5282 51.28C47.617 51.254 47.839 51.1237 48.0165 50.9934C48.3568 50.7459 48.342 50.7459 46.2557 50.7329C45.0868 50.7329 44.1398 50.785 44.1398 50.8371Z" fill="#EF7E06"/>
<path d="M49.023 50.8371C49.023 50.9022 49.1857 51.0325 49.3781 51.1237C49.6592 51.254 49.7332 51.3712 49.674 51.6318C49.6296 51.8142 49.1117 54.4327 48.5051 57.4421C47.8984 60.4515 47.3361 62.9268 47.2622 62.9528C47.1734 62.9789 46.9514 63.1092 46.7739 63.2394C46.4335 63.487 46.4483 63.487 48.5495 63.5C49.8516 63.5 50.6506 63.4479 50.6506 63.3697C50.6506 63.2916 50.6062 63.2394 50.547 63.2394C50.473 63.2394 50.3103 63.1613 50.1771 63.0571C49.9404 62.9007 49.9552 62.7183 50.473 60.0998L51.0353 57.3118L51.9231 57.2728C52.7221 57.2337 52.8405 57.2728 53.1808 57.5985L53.5655 57.9632L53.0625 60.4124C52.5742 62.7835 52.5742 62.8616 52.8257 63.1743C53.0773 63.4739 53.1808 63.487 54.3942 63.5C55.7111 63.5 55.9182 63.4088 55.3707 63.0701L55.0748 62.8747L55.6075 60.2561L56.155 57.6375L55.7702 57.1946L55.3855 56.7517L55.9478 56.3087C56.4953 55.8658 56.5101 55.8527 56.9096 53.7944L57.3091 51.723L56.8948 51.254L56.4657 50.798L52.7369 50.7589C50.695 50.7459 49.023 50.7719 49.023 50.8371ZM54.335 52.0487L54.6753 52.4395L54.3498 53.9898C54.039 55.4489 53.9946 55.5792 53.5212 55.9439C53.0773 56.2827 52.8997 56.3348 52.1155 56.3348C51.3312 56.3348 51.2277 56.3087 51.3017 56.1003C51.3312 55.983 51.5532 54.9278 51.7751 53.7553L52.1747 51.6448L53.0773 51.6578C53.8911 51.6578 54.0094 51.6969 54.335 52.0487Z" fill="#EF7E06"/>
<path d="M59.4104 51.2279L58.7593 51.723L57.6792 57.1164L56.6138 62.5099L57.0577 63.0049L57.5016 63.5H60.5645H63.6275L64.2933 63.031L64.9592 62.549L66.0245 57.1946C66.6016 54.2503 67.0751 51.8011 67.0751 51.749C67.0751 51.6969 66.8679 51.4494 66.6164 51.1888L66.1577 50.7329H63.0948L60.0467 50.7459L59.4104 51.2279ZM64.1305 52.0487L64.4561 52.4655L63.5387 57.1034L62.6065 61.7413L62.1034 62.1581C61.6743 62.536 61.4967 62.5881 60.8161 62.5881C60.1502 62.5881 59.9727 62.536 59.6324 62.2233L59.2328 61.8585L60.1946 57.1425L61.1416 52.4395L61.6299 52.0487C62.0442 51.7099 62.2366 51.6578 62.9616 51.6448C63.731 51.6448 63.8198 51.6708 64.1305 52.0487Z" fill="#EF7E06"/>
</svg>
