
<svg width="57" height="63" viewBox="0 0 70 80" fill="none" xmlns="http://www.w3.org/2000/svg">
<path d="M45.1859 30.6743C42.2679 40.1929 42.5978 49.2869 48.2815 57.8671C49.1442 59.1407 49.1442 59.9674 47.8248 60.9282C45.3635 62.6934 42.953 64.5033 40.5679 66.3355C39.6544 67.0282 38.9186 67.0058 37.929 66.3579C29.6825 60.9506 23.8465 53.9345 19.8882 45.6225C18.7717 43.254 17.8836 40.8185 16.8941 38.4053C16.7926 38.1372 16.7164 37.8691 16.5896 37.6009C14.2044 32.216 14.1029 30.6296 15.9299 24.8648C15.8791 24.9318 13.6462 25.3117 11.87 27.993C9.63715 24.0604 13.1641 17.2901 20.015 14.6982C18.8225 13.2458 18.3657 11.6594 19.0508 9.67077C19.5583 9.98359 19.9643 10.207 20.3703 10.4528C22.6286 11.8158 24.9883 11.9946 27.4242 10.922C28.6422 10.3858 29.8347 9.76014 30.9765 9.08982C32.9303 7.97261 34.9095 7.23526 36.914 8.06199C39.4768 5.76055 41.8873 3.59316 44.3232 1.42578C45.1352 3.59316 43.3082 5.55944 43.3082 7.97261C46.9367 7.4587 48.8651 5.15725 51.3517 3.0569C51.707 3.88363 51.707 5.44773 51.4532 6.56493C50.9711 8.68763 50.5905 9.55905 52.2144 11.1678C61.0953 18.8542 66.5507 28.8644 68.7074 31.8138C70.4836 34.227 70.5344 36.7072 68.2 38.7405C65.7387 40.8855 62.2117 40.4833 59.8266 38.2936C58.7355 37.2658 51.707 30.0039 45.1859 30.6743ZM31.9407 15.1227C24.9376 20.5077 21.0046 27.4567 18.6956 35.2325C18.3911 36.238 18.1881 37.4222 18.518 38.383C20.7763 45.4437 24.354 51.9906 29.7332 57.6436C31.5855 59.5876 33.6916 61.3304 35.6961 63.1626C35.823 63.0956 35.9752 63.0286 36.1021 62.9616C34.4781 53.2642 33.5647 43.6115 37.8275 34.2046C35.4931 44.5053 37.6752 54.2473 42.1664 63.9447C43.5366 62.8722 44.6784 61.9114 45.8964 61.0176C46.6068 60.4813 46.5815 60.0121 46.2008 59.3194C42.4201 52.5045 41.6336 45.3097 42.9276 37.9138C43.359 35.4783 43.8918 33.0651 44.3993 30.5849C42.5724 30.5849 40.847 30.5849 39.0201 30.5849C39.3245 26.8534 37.726 23.5241 36.1274 20.1725C38.9186 22.3176 40.1619 25.1106 40.6947 28.2164C40.9992 28.2611 41.2022 28.3058 41.3798 28.3058C47.4442 28.0153 52.3921 30.2274 56.6802 33.7578C58.3295 35.1208 59.7759 36.7072 61.3237 38.1595C62.2879 39.0757 63.4043 39.679 65.0029 39.2321C64.4954 37.3999 63.4804 36.2603 61.9072 35.3665C61.2221 34.9867 61.8819 34.0035 62.5416 34.2717C63.0744 34.4951 63.5312 34.9867 63.8864 35.4336C64.7745 36.5284 65.5865 37.668 66.5507 38.9416C67.2865 38.2489 67.9716 37.5786 68.7582 36.8189C67.8955 36.6178 67.2611 36.5508 66.6775 36.3497C65.4342 35.9028 65.0282 34.8973 65.8148 34.0035C65.9924 33.8024 66.8298 33.2215 67.2104 33.579C67.7179 34.0259 67.5403 34.5398 67.5403 34.7409C67.5403 34.9867 67.3372 35.2101 67.2104 35.5453C67.8194 35.8358 68.3522 36.0815 68.885 36.3273C69.5701 35.0537 69.3418 34.0482 68.6059 32.9981C66.779 30.4285 65.1044 27.7695 63.2521 25.2223C59.649 20.2619 55.8937 15.4356 50.9204 11.4136C48.4338 9.40264 45.6934 8.48653 42.344 9.15686C42.2679 9.1792 42.1664 9.08982 41.8619 8.9781C42.2172 7.54807 42.5978 6.07336 42.953 4.57631C39.5275 6.56494 38.6394 7.52573 37.7514 10.207C36.1528 8.75466 34.402 9.04513 32.6512 9.87186C31.7631 10.2964 30.9765 10.855 30.0631 11.2125C28.4899 11.8605 26.9167 12.7096 25.2674 12.8883C23.6181 13.0671 22.0449 12.8213 20.015 11.4806C20.2688 13.4916 21.2837 14.6088 22.7808 15.4579C20.0658 15.8378 17.5792 16.7762 15.6761 18.6084C13.7731 20.4406 12.6313 22.9208 12.4283 25.334C14.9657 23.5465 17.2493 23.5465 17.7568 23.5465C16.5642 27.2556 15.2701 31.5457 16.9956 35.2101C19.7613 27.0098 23.6181 19.7256 31.9407 15.1227ZM50.8189 5.02319C49.4233 6.11805 48.383 6.92244 47.2412 7.81621C48.1039 8.2184 48.8144 8.55356 49.5502 8.88872C49.9562 7.6598 50.3368 6.52025 50.8189 5.02319Z" fill="#ED8E00"/>
<path d="M55.6911 22.4975C54.8791 21.0899 54.0164 19.7269 53.1283 18.3862C53.0776 18.3192 52.8493 18.1628 52.7985 18.1628C52.088 18.1628 50.7686 18.1404 50.2611 18.0957C50.1343 18.0957 49.9059 17.9617 49.8551 17.8947C47.8252 16.2859 46.2267 15.191 46.1505 15.2357C46.0744 15.2804 46.9118 16.4423 50.0074 20.3525C50.0835 20.4419 50.4895 20.6206 50.6417 20.6206C51.5298 20.6877 52.4433 20.7324 53.3314 20.7994C53.3821 20.7994 53.6104 20.8888 53.6612 20.9335C54.3209 21.4474 54.9806 21.9613 55.6404 22.4752C55.6404 22.5199 55.7165 22.5199 55.6911 22.4975Z" fill="#ED8E00"/>
<path d="M20.751 0.102903C17.63 0.236968 13.1135 0.572132 10.1448 0.907294C5.83119 1.39886 0.553433 2.2256 0.299695 2.44904C0.248947 2.49373 0.147439 3.67796 0.0966915 5.08564C-0.258543 13.2859 0.375816 21.8438 1.82213 29.2844C2.15199 30.9602 2.53258 32.77 2.63408 33.0829C2.73557 33.3957 3.26843 35.5407 3.36993 35.9429C3.42067 36.144 3.54754 36.6579 3.69978 37.0825C3.82665 37.507 3.9789 37.9986 4.00427 38.1773C4.30876 39.4733 6.28791 44.9476 7.0745 46.7575C7.15063 46.9362 7.40437 47.4948 7.60736 47.9864C7.83573 48.478 8.0641 49.0366 8.16559 49.2153C8.26709 49.3941 8.39395 49.6622 8.4447 49.7963C8.49545 49.9303 8.62232 50.1538 8.69844 50.3102C8.77456 50.4666 8.95218 50.8018 9.07905 51.0699C9.58652 52.1648 10.4746 53.5724 10.4746 53.6618C10.4746 53.7959 11.8448 56.3208 11.997 56.4548C12.0478 56.4995 12.2 56.723 12.8851 57.8849C13.2404 58.4658 13.9001 59.4936 15.3718 61.6387C15.4479 61.7504 15.5494 61.8845 15.6001 61.9291C15.6509 61.9962 16.0822 62.5771 16.5643 63.2251C17.0464 63.8731 17.5032 64.454 17.5539 64.5211C17.6047 64.5881 17.7823 64.7892 17.9091 64.9456C18.6957 65.9511 19.0256 66.3309 19.66 67.0236C19.9391 67.3141 20.2943 67.7163 20.4719 67.9174C20.9794 68.476 21.563 69.124 21.9436 69.4591C22.2227 69.7272 23.7705 71.2243 23.7705 71.269C23.7705 71.4924 28.2871 75.2686 29.7841 76.2964C30.2155 76.6092 30.9767 77.1455 31.0274 77.1902C31.1797 77.3242 33.641 78.7096 34.0469 78.9107C34.6305 79.1788 35.2141 79.1788 35.6962 78.933C36.3813 78.6202 37.3455 78.1063 37.3963 78.0616C37.4216 78.0393 37.5485 77.9499 37.6246 77.9052C38.0814 77.6594 38.9948 77.0785 39.3247 76.8103C39.5277 76.6539 39.7307 76.5199 39.7561 76.5199C39.8322 76.5199 39.959 76.4305 40.974 75.6261C41.3292 75.358 41.6845 75.0898 41.786 75.0452C42.2427 74.7994 48.1041 69.7049 49.2459 68.5654C51.1489 66.6214 51.225 66.532 51.8086 65.9064C52.037 65.6383 52.3161 65.3701 52.3922 65.3031C52.8236 64.9233 55.4625 61.661 56.1476 60.7226C57.67 58.5775 58.9387 56.4548 59.37 55.4493C60.0551 53.7959 60.182 53.5054 60.1059 53.5501C60.0551 53.5724 59.8775 53.7959 59.7253 54.064C59.573 54.3098 59.3954 54.5332 59.37 54.5556C59.3447 54.5779 59.1924 54.779 59.0402 54.9801C58.8879 55.1812 58.7357 55.4047 58.685 55.4493C58.6088 55.5387 57.4162 57.0134 57.0864 57.3933C57.0103 57.505 56.8073 57.7061 56.7058 57.8402C56.5789 57.9742 56.0461 58.5552 55.5132 59.1361C55.0057 59.7171 54.4475 60.298 54.2953 60.4768C53.9654 60.7896 53.0012 61.7727 52.8236 61.9291C52.7475 61.9962 52.3922 62.3537 51.9862 62.7559C50.6668 64.0518 48.7384 65.7277 46.81 67.2024C46.3786 67.5375 45.9726 67.8727 45.8965 67.9174C45.8204 67.9844 45.2622 68.3643 44.6532 68.8111C44.0189 69.2357 43.4099 69.6826 43.2576 69.7719C42.7502 70.1294 40.5426 71.4254 39.9844 71.6935C38.8426 72.2521 37.2187 72.9001 36.8634 72.9672C36.5589 73.0118 36.3052 72.9448 35.4171 72.5426C34.8335 72.2745 34.1231 71.917 33.8693 71.7606C33.6156 71.6042 33.3872 71.4924 33.3618 71.4924C33.3111 71.4924 31.7125 70.4646 31.0528 70.0177C30.9006 69.906 30.3677 69.5038 29.8349 69.1016C28.9468 68.409 26.4348 66.1522 26.2064 65.9064C25.7497 65.4148 24.4302 63.9625 23.9989 63.4932C23.2884 62.6888 22.3242 61.4376 21.1316 59.7841C20.954 59.5383 20.751 59.2479 20.6749 59.1585C20.5988 59.0468 20.4719 58.8456 20.3704 58.6892C20.1928 58.3764 19.9644 58.0413 19.8883 57.9742C19.8376 57.9295 19.7361 57.7955 19.0256 56.6112C18.239 55.3153 16.8181 52.7457 16.1076 51.3604C15.4479 50.0868 14.712 48.3662 14.4583 47.7853C13.215 44.9476 11.5403 40.4341 11.0328 38.5572C10.9821 38.3784 10.7791 37.6187 10.5507 36.8814C10.1447 35.5407 9.56114 33.2393 9.23128 31.8316C9.15516 31.407 9.00292 30.8931 8.97754 30.6697C8.9268 30.4686 8.69844 29.3961 8.49545 28.2789C7.8611 24.9272 7.42975 21.6203 7.09989 17.7548C6.94764 15.8555 6.92227 8.88415 7.04914 7.05193L7.12526 5.823L7.91185 5.51018C10.4239 4.48235 13.2657 3.745 17.6554 2.9853C22.2988 2.18091 27.6781 1.6223 33.5141 1.37652C36.8381 1.24245 37.1679 1.19776 37.4217 1.08604L37.6754 0.974323L37.4217 0.795573C37.0664 0.527443 36.5589 0.438063 34.7574 0.281654C31.1543 0.0135238 25.2929 -0.0981941 20.751 0.102903Z" fill="#ED8E00"/>

</svg>
